<svg width="66" height="54" viewBox="0 0 66 54" fill="none" xmlns="http://www.w3.org/2000/svg">
<path d="M20.7163 54C13.091 54 5.98284 51.7909 0 47.9793C5.07963 48.3067 14.044 47.5226 19.6199 42.2252C11.232 41.8418 7.44919 35.4341 6.95578 32.6957C7.66848 32.9696 11.0675 33.2982 12.9863 32.5314C3.33747 30.1217 1.85726 21.6876 2.1862 19.1136C3.99535 20.3732 7.06543 20.8114 8.27153 20.7018C-0.719417 14.2941 2.51513 4.65517 4.105 2.57404C10.5572 11.4777 20.2271 16.4784 32.19 16.7565C31.9645 15.7712 31.8454 14.7453 31.8454 13.6917C31.8454 6.12998 37.9816 0 45.5511 0C49.506 0 53.0697 1.67342 55.5713 4.35014C58.2141 3.73329 62.1916 2.28929 64.136 1.04057C63.1559 4.54564 60.1046 7.46959 58.2589 8.55331C58.2439 8.51628 58.2742 8.59018 58.2589 8.55331C59.8802 8.30904 64.267 7.4693 66 6.29817C65.143 8.26728 61.908 11.5413 59.2532 13.3742C59.7471 35.072 43.0803 54 20.7163 54Z" fill="#47ACDF"/>
</svg>
