<svg width="78" height="75" viewBox="0 0 78 75" fill="none" xmlns="http://www.w3.org/2000/svg">
<path d="M67.896 37.7847C67.896 53.1743 54.9774 65.6501 39.0414 65.6501C32.9631 65.6501 27.3237 63.8351 22.6728 60.7357L12.8099 63.1169L15.3944 53.7571C12.1126 49.2343 10.1868 43.7267 10.1868 37.7847C10.1868 22.3951 23.1054 9.91931 39.0414 9.91931C54.9774 9.91931 67.896 22.3951 67.896 37.7847Z" fill="url(#paint0_linear_25_1739)"/>
<path fill-rule="evenodd" clip-rule="evenodd" d="M39.0414 70.2944C57.6334 70.2944 72.7051 55.7393 72.7051 37.7848C72.7051 19.8302 57.6334 5.27515 39.0414 5.27515C20.4494 5.27515 5.37769 19.8302 5.37769 37.7848C5.37769 43.6153 6.96709 49.0874 9.7503 53.8189L5.37769 70.2944L22.9667 66.3556C27.7433 68.8673 33.2198 70.2944 39.0414 70.2944ZM39.0414 65.2929C54.7731 65.2929 67.5261 52.9771 67.5261 37.7848C67.5261 22.5924 54.7731 10.2766 39.0414 10.2766C23.3098 10.2766 10.5567 22.5924 10.5567 37.7848C10.5567 43.6506 12.4579 49.0876 15.6976 53.5524L13.1462 62.7921L22.8827 60.4415C27.474 63.5012 33.041 65.2929 39.0414 65.2929Z" fill="white"/>
<path d="M30.6256 22.691C29.8252 21.1385 28.5973 21.2759 27.357 21.2759C25.1402 21.2759 21.6836 23.8402 21.6836 28.6126C21.6836 32.5237 23.4682 36.8051 29.482 43.2097C35.2856 49.3907 42.9113 52.5881 49.242 52.4792C55.5728 52.3704 56.8753 47.1093 56.8753 45.3326C56.8753 44.5451 56.3692 44.1522 56.0206 44.0455C53.8633 43.0456 49.8844 41.1826 48.979 40.8326C48.0737 40.4825 47.601 40.956 47.3071 41.2135C46.4861 41.9691 44.8587 44.1959 44.3014 44.6967C43.7442 45.1976 42.9135 44.9441 42.5677 44.7547C41.2956 44.2617 37.8462 42.78 35.0967 40.2061C31.6963 37.0228 31.4968 35.9276 30.8561 34.9528C30.3436 34.1728 30.7197 33.6943 30.9074 33.4852C31.64 32.6688 32.6516 31.4085 33.1053 30.7821C33.5589 30.1558 33.1988 29.2048 32.9827 28.6126C32.0533 26.0653 31.2659 23.933 30.6256 22.691Z" fill="white"/>
<defs>
<linearGradient id="paint0_linear_25_1739" x1="64.2892" y1="16.8857" x2="11.9476" y2="67.472" gradientUnits="userSpaceOnUse">
<stop stop-color="#5BD066"/>
<stop offset="1" stop-color="#27B43E"/>
</linearGradient>
</defs>
</svg>
