<svg width="24" height="282" viewBox="0 0 24 282" fill="none" xmlns="http://www.w3.org/2000/svg">
<circle cx="12" cy="12" r="12" fill="#A129A2"/>
<path d="M7 12L11.125 16L18 8" stroke="white" stroke-width="2"/>
<circle cx="12" cy="55" r="12" fill="#A129A2"/>
<path d="M7 55L11.125 59L18 51" stroke="white" stroke-width="2"/>
<circle cx="12" cy="98" r="12" fill="#A129A2"/>
<path d="M7 98L11.125 102L18 94" stroke="white" stroke-width="2"/>
<circle cx="12" cy="141" r="12" fill="#A129A2"/>
<path d="M7 141L11.125 145L18 137" stroke="white" stroke-width="2"/>
<circle cx="12" cy="184" r="12" fill="#A129A2"/>
<path d="M7 184L11.125 188L18 180" stroke="white" stroke-width="2"/>
<circle cx="12" cy="227" r="12" fill="#A129A2"/>
<path d="M7 227L11.125 231L18 223" stroke="white" stroke-width="2"/>
<circle cx="12" cy="270" r="12" fill="#A129A2"/>
<path d="M7 270L11.125 274L18 266" stroke="white" stroke-width="2"/>
</svg>
